<svg version="1.1" id="Layer_1" xmlns="http://www.w3.org/2000/svg" xmlns:xlink="http://www.w3.org/1999/xlink" x="0px" y="0px"
	 width="100%" viewBox="0 0 1172 1172" enable-background="new 0 0 1172 1172" xml:space="preserve">
<path fill="#000000" opacity="1.000000" stroke="none" 
	d="
M683.000000,1173.000000 
	C455.333344,1173.000000 228.166672,1173.000000 1.000000,1173.000000 
	C1.000000,782.333313 1.000000,391.666656 1.000000,1.000000 
	C391.666656,1.000000 782.333313,1.000000 1173.000000,1.000000 
	C1173.000000,391.666656 1173.000000,782.333313 1173.000000,1173.000000 
	C1009.833313,1173.000000 846.666687,1173.000000 683.000000,1173.000000 
M649.214294,617.901672 
	C649.476135,612.666443 649.958862,607.431458 649.965393,602.195923 
	C650.024231,554.703491 649.980347,507.210907 650.044800,459.718475 
	C650.049011,456.628723 649.958984,454.017426 645.986938,454.012482 
	C631.322571,453.994232 616.657410,453.936646 601.995361,454.123108 
	C600.655029,454.140167 598.343384,455.628601 598.164856,456.711243 
	C596.867188,464.578522 596.064331,472.525696 594.979126,480.430298 
	C594.093689,486.879120 592.962402,493.294098 592.069824,499.742035 
	C590.975830,507.644775 590.033081,515.568359 588.994995,523.479004 
	C587.997314,531.081665 586.961426,538.679260 585.942261,546.279114 
	C585.016541,543.934753 584.537598,541.713745 584.211975,539.470520 
	C583.112061,531.891479 581.958130,524.317688 581.027893,516.717102 
	C579.894836,507.460388 579.190369,498.147095 577.890869,488.915924 
	C576.511719,479.118469 574.127075,469.436768 573.225403,459.608734 
	C572.778015,454.732391 570.925232,453.928009 566.890808,453.961365 
	C553.893677,454.068848 540.895203,453.995422 527.897217,454.003906 
	C521.463074,454.008087 521.013855,454.446991 521.013367,460.770752 
	C521.009094,511.262817 521.010925,561.754883 521.010986,612.246948 
	C521.010986,613.080139 520.684204,614.147949 521.078796,614.698853 
	C521.963806,615.934509 523.182068,617.821472 524.309265,617.853149 
	C533.412964,618.109070 542.526978,617.996704 552.510986,617.996704 
	C552.510986,584.372559 552.510986,551.243591 552.510986,518.114563 
	C554.582642,524.828308 555.813110,531.510010 557.000427,538.199341 
	C558.250122,545.240173 559.472290,552.286011 560.681885,559.333862 
	C562.135254,567.802551 563.569092,576.274597 564.999329,584.747253 
	C566.673279,594.664185 568.326782,604.584656 570.006348,614.500671 
	C570.403137,616.843323 571.381470,618.150391 574.218140,618.074341 
	C582.211121,617.859863 590.214417,617.934998 598.211914,618.034485 
	C600.996826,618.069153 601.718262,616.928894 602.095764,614.222168 
	C603.689209,602.798767 605.551514,591.410034 607.489685,580.038269 
	C609.207031,569.961426 611.348267,559.954407 612.945923,549.860229 
	C614.539490,539.792175 615.690002,529.653992 617.034729,519.546570 
	C617.576355,519.559998 618.117920,519.573425 618.659485,519.586853 
	C618.659485,552.360657 618.659485,585.134399 618.659485,617.988770 
	C629.261719,617.988770 638.758057,617.988770 649.214294,617.901672 
M768.635803,514.870422 
	C772.503967,504.815704 771.143127,494.292236 770.780396,484.007263 
	C770.533447,477.005676 768.784851,469.997406 763.818726,464.207642 
	C757.684937,457.056458 749.425781,454.568298 740.809021,454.178162 
	C726.513306,453.531006 712.163269,454.186951 697.844238,453.894043 
	C693.263916,453.800293 691.879333,454.984222 691.894897,459.706818 
	C692.063171,510.843475 692.000000,561.980896 692.000000,613.118103 
	C692.000000,614.698975 692.000000,616.279846 692.000000,617.999023 
	C709.543396,617.999023 726.403931,618.748901 743.161804,617.759583 
	C756.346252,616.981201 763.289551,611.635376 767.977417,598.852905 
	C772.550781,586.382507 774.102905,573.355835 772.957825,560.118225 
	C771.851990,547.334045 771.261719,534.192993 758.706604,527.642883 
	C761.974060,523.401001 765.034485,519.427917 768.635803,514.870422 
M404.007233,532.778870 
	C403.671478,537.700500 403.355774,542.623657 402.995544,547.543518 
	C402.336121,556.548340 401.870575,565.574402 400.925385,574.549622 
	C399.412201,588.918091 397.573639,603.252319 395.853821,617.759521 
	C407.528870,617.759521 418.605225,617.759521 429.663910,617.759521 
	C430.118927,610.140076 430.619415,602.763977 430.965118,595.380615 
	C431.073975,593.055542 431.037170,590.963318 434.222931,590.991699 
	C439.343445,591.037354 444.464661,591.003967 449.609741,591.003967 
	C450.431274,600.178894 451.215240,608.934326 452.003265,617.735229 
	C462.872833,617.735229 473.276611,617.735229 483.829681,617.735229 
	C483.829681,614.517822 484.090790,611.535400 483.783264,608.612793 
	C482.622284,597.579285 481.104645,586.581665 480.051910,575.538940 
	C479.131805,565.887512 478.910034,556.167908 477.925476,546.524719 
	C476.499512,532.558594 474.402985,518.658997 473.076538,504.685028 
	C471.741394,490.619568 471.014862,476.496704 469.989258,462.401337 
	C469.409668,454.435944 468.909515,454.001862 460.919708,454.001617 
	C447.099060,454.001221 433.278381,454.000519 419.457733,454.001862 
	C412.272369,454.002563 411.245605,455.120941 410.974609,462.502533 
	C410.750916,468.595581 410.508362,474.700287 409.915955,480.764862 
	C408.741333,492.789307 407.346649,504.792725 405.986908,516.798462 
	C405.417999,521.821533 404.706451,526.828552 404.007233,532.778870 
M889.006531,556.242065 
	C887.352112,540.117249 885.616028,524.000244 884.066833,507.865356 
	C882.608765,492.678497 881.152161,477.486481 880.082825,462.269470 
	C879.552002,454.715179 879.283997,454.001678 872.014038,454.001617 
	C857.683411,454.001465 843.352783,454.000275 829.022156,454.002258 
	C823.226562,454.003052 822.442139,454.873352 821.971619,460.737427 
	C821.434753,467.427612 820.609314,474.094208 820.027100,480.781311 
	C818.647339,496.627899 817.341614,512.480896 815.996033,528.330505 
	C815.662659,532.256714 815.363159,536.187866 814.924011,540.102783 
	C813.649780,551.462097 812.284058,562.811096 811.011108,574.170532 
	C810.318909,580.347900 809.653381,586.530762 809.135254,592.724548 
	C808.442383,601.006775 807.904358,609.301941 807.270020,618.000000 
	C816.495850,618.000000 825.646484,617.674255 834.758850,618.123779 
	C840.116333,618.388000 841.074341,616.110657 841.093933,611.494995 
	C841.122498,604.782898 841.800049,598.073547 842.206787,591.265076 
	C848.494202,591.265076 854.502930,591.265076 860.017822,591.265076 
	C860.814575,599.676575 861.510498,607.799683 862.465576,615.892212 
	C862.559570,616.689209 864.232727,617.889832 865.188049,617.904358 
	C874.989258,618.053162 884.793579,617.995483 894.994080,617.995483 
	C894.299194,611.819214 893.510376,606.056580 893.031433,600.268188 
	C892.245361,590.765686 891.757690,581.238159 890.950256,571.737732 
	C890.536072,566.864868 889.701782,562.027649 889.006531,556.242065 
M360.999420,572.487427 
	C360.999451,535.000366 360.895386,497.512665 361.122498,460.026978 
	C361.153229,454.959656 359.253754,453.828308 354.826660,453.947784 
	C347.501190,454.145416 340.152344,454.277222 332.840881,453.901031 
	C328.241272,453.664368 326.871124,455.002502 326.893768,459.719116 
	C327.081696,498.871368 327.017151,538.024963 326.956360,577.178040 
	C326.952881,579.419067 326.965546,582.114380 325.800354,583.779053 
	C324.479858,585.665710 321.793762,587.752625 319.785858,587.671204 
	C317.846222,587.592529 315.146332,585.214783 314.340210,583.217407 
	C313.162537,580.299377 313.091766,576.822449 313.052032,573.577698 
	C312.916199,562.480652 313.000000,551.380920 313.000000,540.318604 
	C301.686981,540.318604 290.958771,540.318604 280.002380,540.318604 
	C280.002380,555.944519 279.251801,571.300720 280.219910,586.547791 
	C281.132507,600.920837 289.292572,610.911560 302.837616,616.462952 
	C311.099762,619.849182 319.736481,619.641296 328.119324,618.764893 
	C337.282959,617.806885 345.156464,613.571411 351.148865,605.807922 
	C358.616943,596.132690 361.553619,585.425232 360.999420,572.487427 
M481.008484,709.458069 
	C481.508179,710.948486 482.007874,712.438965 482.472473,713.824707 
	C485.365692,713.824707 487.995605,713.824707 490.577667,713.824707 
	C493.914948,701.656372 497.204346,689.662659 500.632599,677.162720 
	C501.196777,678.631836 501.696503,679.645325 501.980042,680.716125 
	C504.665131,690.856750 507.484924,700.966858 509.885071,711.175293 
	C510.801575,715.073364 513.532410,714.127441 515.678162,713.848816 
	C517.190369,713.652527 519.412964,712.313354 519.794373,711.031128 
	C524.298035,695.893005 528.513977,680.669250 532.872681,665.230713 
	C530.358398,665.230713 527.932373,665.230713 525.407349,665.230713 
	C522.036255,677.518250 518.672729,689.777954 514.965332,703.290955 
	C511.342438,689.656067 508.087738,677.406860 504.854492,665.238525 
	C502.027344,665.238525 499.583954,665.238525 497.362854,665.238525 
	C493.875732,677.907776 490.465576,690.297424 487.055420,702.687134 
	C483.752167,691.803955 481.330872,681.093201 478.737823,670.424255 
	C477.241608,664.268066 476.982605,664.228088 469.316864,665.563721 
	C473.211578,679.918762 477.102966,694.261597 481.008484,709.458069 
M687.630615,697.126343 
	C688.305725,702.623657 688.980774,708.120972 689.671692,713.747314 
	C691.867920,713.747314 694.272034,713.747314 696.000000,713.747314 
	C696.000000,709.220337 696.078003,704.931763 695.978760,700.647339 
	C695.872925,696.081421 694.693481,691.991821 689.899170,689.660217 
	C696.126953,686.496704 697.751099,681.270935 696.910767,675.172668 
	C696.271362,670.531860 691.234497,665.338867 686.643738,665.128479 
	C678.222900,664.742554 669.771790,665.018494 661.275513,665.018494 
	C661.275513,681.593628 661.275513,697.658569 661.275513,713.692139 
	C663.957825,713.692139 666.354065,713.692139 669.201538,713.692139 
	C669.201538,706.653320 669.201538,699.912598 669.201538,693.000000 
	C672.151245,693.000000 674.637268,693.052429 677.120300,692.987732 
	C680.901733,692.889343 684.588013,692.974060 687.630615,697.126343 
M638.998901,700.464539 
	C634.656738,688.688110 630.314636,676.911682 626.035522,665.306152 
	C616.468567,664.515076 616.531433,664.536682 614.037720,671.796936 
	C609.228271,685.799500 604.340210,699.775208 599.487549,713.763000 
	C606.910278,714.303101 606.868042,714.288391 609.255371,707.434998 
	C610.106934,704.990417 611.217773,702.636047 612.309937,700.000000 
	C616.109436,700.000000 619.974915,700.403442 623.720215,699.904724 
	C629.238159,699.169983 631.757019,701.084351 633.183105,706.600403 
	C635.280884,714.714111 636.256287,714.911316 644.023682,713.328979 
	C642.357666,709.283997 640.706238,705.274353 638.998901,700.464539 
M558.001038,693.698853 
	C557.567566,690.838318 559.442261,690.970459 561.388062,690.983215 
	C568.171082,691.027649 574.954590,691.000427 581.703796,691.000427 
	C581.703796,688.726257 581.703796,687.001892 581.703796,684.816040 
	C573.677368,684.816040 565.936279,684.816040 558.356506,684.816040 
	C558.356506,679.945435 558.356506,675.548279 558.356506,670.881104 
	C566.997437,670.881104 575.284729,670.881104 583.782166,670.881104 
	C583.782166,668.871399 583.782166,667.142700 583.782166,665.250488 
	C572.842041,665.250488 562.107117,665.250488 551.276733,665.250488 
	C551.276733,681.561829 551.276733,697.621338 551.276733,713.839417 
	C562.169617,713.839417 572.786560,713.839417 583.586609,713.839417 
	C584.007935,711.997681 584.421753,710.188660 584.936829,707.936890 
	C575.925415,707.936890 567.158325,707.936890 557.999756,707.936890 
	C557.999756,703.249939 557.999756,698.957458 558.001038,693.698853 
z"/>
<path fill="#FFCB00" opacity="1.000000" stroke="none" 
	d="
M648.734375,617.945190 
	C638.758057,617.988770 629.261719,617.988770 618.659485,617.988770 
	C618.659485,585.134399 618.659485,552.360657 618.659485,519.586853 
	C618.117920,519.573425 617.576355,519.559998 617.034729,519.546570 
	C615.690002,529.653992 614.539490,539.792175 612.945923,549.860229 
	C611.348267,559.954407 609.207031,569.961426 607.489685,580.038269 
	C605.551514,591.410034 603.689209,602.798767 602.095764,614.222168 
	C601.718262,616.928894 600.996826,618.069153 598.211914,618.034485 
	C590.214417,617.934998 582.211121,617.859863 574.218140,618.074341 
	C571.381470,618.150391 570.403137,616.843323 570.006348,614.500671 
	C568.326782,604.584656 566.673279,594.664185 564.999329,584.747253 
	C563.569092,576.274597 562.135254,567.802551 560.681885,559.333862 
	C559.472290,552.286011 558.250122,545.240173 557.000427,538.199341 
	C555.813110,531.510010 554.582642,524.828308 552.510986,518.114563 
	C552.510986,551.243591 552.510986,584.372559 552.510986,617.996704 
	C542.526978,617.996704 533.412964,618.109070 524.309265,617.853149 
	C523.182068,617.821472 521.963806,615.934509 521.078796,614.698853 
	C520.684204,614.147949 521.010986,613.080139 521.010986,612.246948 
	C521.010925,561.754883 521.009094,511.262817 521.013367,460.770752 
	C521.013855,454.446991 521.463074,454.008087 527.897217,454.003906 
	C540.895203,453.995422 553.893677,454.068848 566.890808,453.961365 
	C570.925232,453.928009 572.778015,454.732391 573.225403,459.608734 
	C574.127075,469.436768 576.511719,479.118469 577.890869,488.915924 
	C579.190369,498.147095 579.894836,507.460388 581.027893,516.717102 
	C581.958130,524.317688 583.112061,531.891479 584.211975,539.470520 
	C584.537598,541.713745 585.016541,543.934753 585.942261,546.279114 
	C586.961426,538.679260 587.997314,531.081665 588.994995,523.479004 
	C590.033081,515.568359 590.975830,507.644775 592.069824,499.742035 
	C592.962402,493.294098 594.093689,486.879120 594.979126,480.430298 
	C596.064331,472.525696 596.867188,464.578522 598.164856,456.711243 
	C598.343384,455.628601 600.655029,454.140167 601.995361,454.123108 
	C616.657410,453.936646 631.322571,453.994232 645.986938,454.012482 
	C649.958984,454.017426 650.049011,456.628723 650.044800,459.718475 
	C649.980347,507.210907 650.024231,554.703491 649.965393,602.195923 
	C649.958862,607.431458 649.476135,612.666443 648.734375,617.945190 
z"/>
<path fill="#FFCB00" opacity="1.000000" stroke="none" 
	d="
M768.365356,515.162598 
	C765.034485,519.427917 761.974060,523.401001 758.706604,527.642883 
	C771.261719,534.192993 771.851990,547.334045 772.957825,560.118225 
	C774.102905,573.355835 772.550781,586.382507 767.977417,598.852905 
	C763.289551,611.635376 756.346252,616.981201 743.161804,617.759583 
	C726.403931,618.748901 709.543396,617.999023 692.000000,617.999023 
	C692.000000,616.279846 692.000000,614.698975 692.000000,613.118103 
	C692.000000,561.980896 692.063171,510.843475 691.894897,459.706818 
	C691.879333,454.984222 693.263916,453.800293 697.844238,453.894043 
	C712.163269,454.186951 726.513306,453.531006 740.809021,454.178162 
	C749.425781,454.568298 757.684937,457.056458 763.818726,464.207642 
	C768.784851,469.997406 770.533447,477.005676 770.780396,484.007263 
	C771.143127,494.292236 772.503967,504.815704 768.365356,515.162598 
M725.000000,549.573792 
	C725.000000,562.314880 725.000000,575.055969 725.000000,587.758545 
	C734.612793,588.355408 739.212219,585.331787 739.794434,576.609863 
	C740.338867,568.452881 739.928345,560.121033 738.893311,551.999329 
	C737.733826,542.900940 733.926208,540.745605 725.000000,542.718445 
	C725.000000,544.643921 725.000000,546.619873 725.000000,549.573792 
M737.005615,495.538818 
	C737.005615,494.212006 737.005981,492.885193 737.005554,491.558380 
	C737.002380,481.736511 735.125488,480.109528 725.213623,481.495575 
	C725.213623,492.510590 725.213623,503.547150 725.213623,514.556885 
	C735.638245,515.832031 736.990723,514.652588 737.003418,504.483154 
	C737.006714,501.829529 737.005066,499.175934 737.005615,495.538818 
z"/>
<path fill="#FFCB00" opacity="1.000000" stroke="none" 
	d="
M404.033478,532.310852 
	C404.706451,526.828552 405.417999,521.821533 405.986908,516.798462 
	C407.346649,504.792725 408.741333,492.789307 409.915955,480.764862 
	C410.508362,474.700287 410.750916,468.595581 410.974609,462.502533 
	C411.245605,455.120941 412.272369,454.002563 419.457733,454.001862 
	C433.278381,454.000519 447.099060,454.001221 460.919708,454.001617 
	C468.909515,454.001862 469.409668,454.435944 469.989258,462.401337 
	C471.014862,476.496704 471.741394,490.619568 473.076538,504.685028 
	C474.402985,518.658997 476.499512,532.558594 477.925476,546.524719 
	C478.910034,556.167908 479.131805,565.887512 480.051910,575.538940 
	C481.104645,586.581665 482.622284,597.579285 483.783264,608.612793 
	C484.090790,611.535400 483.829681,614.517822 483.829681,617.735229 
	C473.276611,617.735229 462.872833,617.735229 452.003265,617.735229 
	C451.215240,608.934326 450.431274,600.178894 449.609741,591.003967 
	C444.464661,591.003967 439.343445,591.037354 434.222931,590.991699 
	C431.037170,590.963318 431.073975,593.055542 430.965118,595.380615 
	C430.619415,602.763977 430.118927,610.140076 429.663910,617.759521 
	C418.605225,617.759521 407.528870,617.759521 395.853821,617.759521 
	C397.573639,603.252319 399.412201,588.918091 400.925385,574.549622 
	C401.870575,565.574402 402.336121,556.548340 402.995544,547.543518 
	C403.355774,542.623657 403.671478,537.700500 404.033478,532.310852 
M443.000458,520.307861 
	C442.126831,510.439880 441.253204,500.571869 440.379608,490.703888 
	C439.956604,490.740479 439.533600,490.777100 439.110626,490.813690 
	C437.517853,515.060547 435.925079,539.307434 434.324646,563.671326 
	C438.476196,563.671326 442.684418,563.671326 447.122803,563.671326 
	C446.697205,561.721191 446.148956,560.156433 446.044006,558.562439 
	C445.621490,552.142517 445.472107,545.702698 444.960327,539.291077 
	C444.479126,533.262512 443.668884,527.260132 443.000458,520.307861 
z"/>
<path fill="#FFCB00" opacity="1.000000" stroke="none" 
	d="
M889.031921,556.708191 
	C889.701782,562.027649 890.536072,566.864868 890.950256,571.737732 
	C891.757690,581.238159 892.245361,590.765686 893.031433,600.268188 
	C893.510376,606.056580 894.299194,611.819214 894.994080,617.995483 
	C884.793579,617.995483 874.989258,618.053162 865.188049,617.904358 
	C864.232727,617.889832 862.559570,616.689209 862.465576,615.892212 
	C861.510498,607.799683 860.814575,599.676575 860.017822,591.265076 
	C854.502930,591.265076 848.494202,591.265076 842.206787,591.265076 
	C841.800049,598.073547 841.122498,604.782898 841.093933,611.494995 
	C841.074341,616.110657 840.116333,618.388000 834.758850,618.123779 
	C825.646484,617.674255 816.495850,618.000000 807.270020,618.000000 
	C807.904358,609.301941 808.442383,601.006775 809.135254,592.724548 
	C809.653381,586.530762 810.318909,580.347900 811.011108,574.170532 
	C812.284058,562.811096 813.649780,551.462097 814.924011,540.102783 
	C815.363159,536.187866 815.662659,532.256714 815.996033,528.330505 
	C817.341614,512.480896 818.647339,496.627899 820.027100,480.781311 
	C820.609314,474.094208 821.434753,467.427612 821.971619,460.737427 
	C822.442139,454.873352 823.226562,454.003052 829.022156,454.002258 
	C843.352783,454.000275 857.683411,454.001465 872.014038,454.001617 
	C879.283997,454.001678 879.552002,454.715179 880.082825,462.269470 
	C881.152161,477.486481 882.608765,492.678497 884.066833,507.865356 
	C885.616028,524.000244 887.352112,540.117249 889.031921,556.708191 
M844.999939,557.514526 
	C844.999939,559.627686 844.999939,561.740845 844.999939,563.762695 
	C849.656555,563.762695 853.749512,563.762695 857.495300,563.762695 
	C856.619995,551.289246 855.991089,539.019043 854.835693,526.798523 
	C853.699890,514.784973 852.029724,502.821869 850.593994,490.836639 
	C850.054321,490.850525 849.514648,490.864410 848.974976,490.878296 
	C848.974976,498.092316 849.392456,505.335663 848.887573,512.514160 
	C847.853821,527.211853 846.324951,541.874756 844.999939,557.514526 
z"/>
<path fill="#FFCB00" opacity="1.000000" stroke="none" 
	d="
M360.999390,572.984192 
	C361.553619,585.425232 358.616943,596.132690 351.148865,605.807922 
	C345.156464,613.571411 337.282959,617.806885 328.119324,618.764893 
	C319.736481,619.641296 311.099762,619.849182 302.837616,616.462952 
	C289.292572,610.911560 281.132507,600.920837 280.219910,586.547791 
	C279.251801,571.300720 280.002380,555.944519 280.002380,540.318604 
	C290.958771,540.318604 301.686981,540.318604 313.000000,540.318604 
	C313.000000,551.380920 312.916199,562.480652 313.052032,573.577698 
	C313.091766,576.822449 313.162537,580.299377 314.340210,583.217407 
	C315.146332,585.214783 317.846222,587.592529 319.785858,587.671204 
	C321.793762,587.752625 324.479858,585.665710 325.800354,583.779053 
	C326.965546,582.114380 326.952881,579.419067 326.956360,577.178040 
	C327.017151,538.024963 327.081696,498.871368 326.893768,459.719116 
	C326.871124,455.002502 328.241272,453.664368 332.840881,453.901031 
	C340.152344,454.277222 347.501190,454.145416 354.826660,453.947784 
	C359.253754,453.828308 361.153229,454.959656 361.122498,460.026978 
	C360.895386,497.512665 360.999451,535.000366 360.999390,572.984192 
z"/>
<path fill="#FFCB00" opacity="1.000000" stroke="none" 
	d="
M481.001404,709.031250 
	C477.102966,694.261597 473.211578,679.918762 469.316864,665.563721 
	C476.982605,664.228088 477.241608,664.268066 478.737823,670.424255 
	C481.330872,681.093201 483.752167,691.803955 487.055420,702.687134 
	C490.465576,690.297424 493.875732,677.907776 497.362854,665.238525 
	C499.583954,665.238525 502.027344,665.238525 504.854492,665.238525 
	C508.087738,677.406860 511.342438,689.656067 514.965332,703.290955 
	C518.672729,689.777954 522.036255,677.518250 525.407349,665.230713 
	C527.932373,665.230713 530.358398,665.230713 532.872681,665.230713 
	C528.513977,680.669250 524.298035,695.893005 519.794373,711.031128 
	C519.412964,712.313354 517.190369,713.652527 515.678162,713.848816 
	C513.532410,714.127441 510.801575,715.073364 509.885071,711.175293 
	C507.484924,700.966858 504.665131,690.856750 501.980042,680.716125 
	C501.696503,679.645325 501.196777,678.631836 500.632599,677.162720 
	C497.204346,689.662659 493.914948,701.656372 490.577667,713.824707 
	C487.995605,713.824707 485.365692,713.824707 482.472473,713.824707 
	C482.007874,712.438965 481.508179,710.948486 481.001404,709.031250 
z"/>
<path fill="#FFCB00" opacity="1.000000" stroke="none" 
	d="
M687.352173,696.815674 
	C684.588013,692.974060 680.901733,692.889343 677.120300,692.987732 
	C674.637268,693.052429 672.151245,693.000000 669.201538,693.000000 
	C669.201538,699.912598 669.201538,706.653320 669.201538,713.692139 
	C666.354065,713.692139 663.957825,713.692139 661.275513,713.692139 
	C661.275513,697.658569 661.275513,681.593628 661.275513,665.018494 
	C669.771790,665.018494 678.222900,664.742554 686.643738,665.128479 
	C691.234497,665.338867 696.271362,670.531860 696.910767,675.172668 
	C697.751099,681.270935 696.126953,686.496704 689.899170,689.660217 
	C694.693481,691.991821 695.872925,696.081421 695.978760,700.647339 
	C696.078003,704.931763 696.000000,709.220337 696.000000,713.747314 
	C694.272034,713.747314 691.867920,713.747314 689.671692,713.747314 
	C688.980774,708.120972 688.305725,702.623657 687.352173,696.815674 
M668.999756,676.589233 
	C668.999756,680.005920 668.999756,683.422607 668.999756,687.428894 
	C673.756958,686.899414 677.789612,686.396301 681.833679,686.014038 
	C687.078918,685.518311 688.921143,683.700928 688.999756,678.753357 
	C689.065735,674.599487 686.168213,671.269592 681.892090,671.048279 
	C677.785217,670.835754 673.658752,671.002380 669.229492,671.002380 
	C669.143372,672.734680 669.071533,674.178223 668.999756,676.589233 
z"/>
<path fill="#FFCB00" opacity="1.000000" stroke="none" 
	d="
M639.026855,700.864624 
	C640.706238,705.274353 642.357666,709.283997 644.023682,713.328979 
	C636.256287,714.911316 635.280884,714.714111 633.183105,706.600403 
	C631.757019,701.084351 629.238159,699.169983 623.720215,699.904724 
	C619.974915,700.403442 616.109436,700.000000 612.309937,700.000000 
	C611.217773,702.636047 610.106934,704.990417 609.255371,707.434998 
	C606.868042,714.288391 606.910278,714.303101 599.486145,713.762512 
	C604.340210,699.775208 609.228271,685.799500 614.037720,671.796936 
	C616.531433,664.536682 616.468567,664.515076 626.035522,665.306152 
	C630.314636,676.911682 634.656738,688.688110 639.026855,700.864624 
M614.996826,690.564026 
	C614.692078,691.590637 614.387390,692.617188 614.029541,693.822693 
	C619.064514,693.822693 623.773010,693.822693 628.750732,693.822693 
	C626.281921,686.828430 623.898499,680.076111 621.218262,672.482788 
	C619.005371,678.676575 617.030701,684.203491 614.996826,690.564026 
z"/>
<path fill="#FFCB00" opacity="1.000000" stroke="none" 
	d="
M558.000366,694.181885 
	C557.999756,698.957458 557.999756,703.249939 557.999756,707.936890 
	C567.158325,707.936890 575.925415,707.936890 584.936829,707.936890 
	C584.421753,710.188660 584.007935,711.997681 583.586609,713.839417 
	C572.786560,713.839417 562.169617,713.839417 551.276733,713.839417 
	C551.276733,697.621338 551.276733,681.561829 551.276733,665.250488 
	C562.107117,665.250488 572.842041,665.250488 583.782166,665.250488 
	C583.782166,667.142700 583.782166,668.871399 583.782166,670.881104 
	C575.284729,670.881104 566.997437,670.881104 558.356506,670.881104 
	C558.356506,675.548279 558.356506,679.945435 558.356506,684.816040 
	C565.936279,684.816040 573.677368,684.816040 581.703796,684.816040 
	C581.703796,687.001892 581.703796,688.726257 581.703796,691.000427 
	C574.954590,691.000427 568.171082,691.027649 561.388062,690.983215 
	C559.442261,690.970459 557.567566,690.838318 558.000366,694.181885 
z"/>
<path fill="#000000" opacity="1.000000" stroke="none" 
	d="
M725.000000,549.084839 
	C725.000000,546.619873 725.000000,544.643921 725.000000,542.718445 
	C733.926208,540.745605 737.733826,542.900940 738.893311,551.999329 
	C739.928345,560.121033 740.338867,568.452881 739.794434,576.609863 
	C739.212219,585.331787 734.612793,588.355408 725.000000,587.758545 
	C725.000000,575.055969 725.000000,562.314880 725.000000,549.084839 
z"/>
<path fill="#000000" opacity="1.000000" stroke="none" 
	d="
M737.005615,496.030579 
	C737.005066,499.175934 737.006714,501.829529 737.003418,504.483154 
	C736.990723,514.652588 735.638245,515.832031 725.213623,514.556885 
	C725.213623,503.547150 725.213623,492.510590 725.213623,481.495575 
	C735.125488,480.109528 737.002380,481.736511 737.005554,491.558380 
	C737.005981,492.885193 737.005615,494.212006 737.005615,496.030579 
z"/>
<path fill="#000000" opacity="1.000000" stroke="none" 
	d="
M443.001953,520.777100 
	C443.668884,527.260132 444.479126,533.262512 444.960327,539.291077 
	C445.472107,545.702698 445.621490,552.142517 446.044006,558.562439 
	C446.148956,560.156433 446.697205,561.721191 447.122803,563.671326 
	C442.684418,563.671326 438.476196,563.671326 434.324646,563.671326 
	C435.925079,539.307434 437.517853,515.060547 439.110626,490.813690 
	C439.533600,490.777100 439.956604,490.740479 440.379608,490.703888 
	C441.253204,500.571869 442.126831,510.439880 443.001953,520.777100 
z"/>
<path fill="#000000" opacity="1.000000" stroke="none" 
	d="
M845.000000,557.033203 
	C846.324951,541.874756 847.853821,527.211853 848.887573,512.514160 
	C849.392456,505.335663 848.974976,498.092316 848.974976,490.878296 
	C849.514648,490.864410 850.054321,490.850525 850.593994,490.836639 
	C852.029724,502.821869 853.699890,514.784973 854.835693,526.798523 
	C855.991089,539.019043 856.619995,551.289246 857.495300,563.762695 
	C853.749512,563.762695 849.656555,563.762695 844.999939,563.762695 
	C844.999939,561.740845 844.999939,559.627686 845.000000,557.033203 
z"/>
<path fill="#000000" opacity="1.000000" stroke="none" 
	d="
M668.999756,676.105469 
	C669.071533,674.178223 669.143372,672.734680 669.229492,671.002380 
	C673.658752,671.002380 677.785217,670.835754 681.892090,671.048279 
	C686.168213,671.269592 689.065735,674.599487 688.999756,678.753357 
	C688.921143,683.700928 687.078918,685.518311 681.833679,686.014038 
	C677.789612,686.396301 673.756958,686.899414 668.999756,687.428894 
	C668.999756,683.422607 668.999756,680.005920 668.999756,676.105469 
z"/>
<path fill="#000000" opacity="1.000000" stroke="none" 
	d="
M615.026489,690.147217 
	C617.030701,684.203491 619.005371,678.676575 621.218262,672.482788 
	C623.898499,680.076111 626.281921,686.828430 628.750732,693.822693 
	C623.773010,693.822693 619.064514,693.822693 614.029541,693.822693 
	C614.387390,692.617188 614.692078,691.590637 615.026489,690.147217 
z"/>
</svg>